<svg id="visual" viewBox="0 0 2500 1400" width="100%" height="100%" xmlns="http://www.w3.org/2000/svg" xmlns:xlink="http://www.w3.org/1999/xlink" version="1.1">
    <rect x="0" y="0" width="100%" height="100%" fill="#e6fbe3"></rect>
    <defs>
      <linearGradient id="grad1_0" x1="44%" y1="0%" x2="100%" y2="100%">
        <stop offset="14.285714285714283%" stop-color="#e6fbe3" stop-opacity="1"></stop>
        <stop offset="85.71428571428572%" stop-color="#e6fbe3" stop-opacity="1"></stop>
      </linearGradient>
    </defs>
    <defs>
      <linearGradient id="grad2_0" x1="0%" y1="0%" x2="56%" y2="100%">
        <stop offset="14.285714285714283%" stop-color="#e6fbe3" stop-opacity="1"></stop>
        <stop offset="85.71428571428572%" stop-color="#e6fbe3" stop-opacity="1"></stop>
      </linearGradient>
    </defs>
    <g transform="translate(2500, 0)">
      <path d="M0 1260C-151.3 1176.3 -302.7 1092.6 -414.8 1001.5C-527 910.4 -599.9 812 -734.7 734.7C-869.5 657.4 -1066.2 601.1 -1164.1 482.2C-1262 363.2 -1261 181.6 -1260 0L0 0Z" fill="#D4F5CD"></path>
    </g>
    <g transform="translate(0, 1400)">
      <path d="M0 -1260C120.4 -1145.5 240.8 -1030.9 410.2 -990.4C579.7 -949.9 798.2 -983.4 891 -891C983.7 -798.5 950.8 -580.1 991.3 -410.6C1031.9 -241.1 1145.9 -120.6 1260 0L0 0Z" fill="#D4F5CD"></path>
    </g>
  </svg>
  